<mxfile host="Electron" agent="Mozilla/5.0 (X11; Linux x86_64) AppleWebKit/537.36 (KHTML, like Gecko) draw.io/24.7.5 Chrome/126.0.6478.183 Electron/31.3.0 Safari/537.36" version="24.7.5">
  <diagram name="Page-1" id="qldNglB9MhPnvddBlw0v">
    <mxGraphModel dx="1434" dy="822" grid="1" gridSize="10" guides="1" tooltips="1" connect="1" arrows="1" fold="1" page="1" pageScale="1" pageWidth="850" pageHeight="1100" math="0" shadow="0">
      <root>
        <mxCell id="0" />
        <mxCell id="1" parent="0" />
        <mxCell id="2zX7negMlNs0xSwpkuFU-1" style="edgeStyle=orthogonalEdgeStyle;rounded=0;orthogonalLoop=1;jettySize=auto;html=1;entryX=0;entryY=0.5;entryDx=0;entryDy=0;" edge="1" parent="1" source="2zX7negMlNs0xSwpkuFU-2" target="2zX7negMlNs0xSwpkuFU-4">
          <mxGeometry relative="1" as="geometry" />
        </mxCell>
        <mxCell id="2zX7negMlNs0xSwpkuFU-2" value="User" style="shape=umlActor;verticalLabelPosition=bottom;verticalAlign=top;html=1;outlineConnect=0;" vertex="1" parent="1">
          <mxGeometry x="150" y="160" width="30" height="60" as="geometry" />
        </mxCell>
        <mxCell id="2zX7negMlNs0xSwpkuFU-3" value="" style="shape=cylinder3;whiteSpace=wrap;html=1;boundedLbl=1;backgroundOutline=1;size=15;" vertex="1" parent="1">
          <mxGeometry x="480" y="190" width="60" height="80" as="geometry" />
        </mxCell>
        <mxCell id="2zX7negMlNs0xSwpkuFU-4" value="Agora" style="shape=document;whiteSpace=wrap;html=1;boundedLbl=1;" vertex="1" parent="1">
          <mxGeometry x="430" y="150" width="120" height="80" as="geometry" />
        </mxCell>
        <mxCell id="2zX7negMlNs0xSwpkuFU-5" value="1) Login with email address&amp;nbsp;&lt;span style=&quot;background-color: initial;&quot;&gt;through&amp;nbsp;&lt;/span&gt;&lt;div&gt;&lt;span style=&quot;background-color: initial;&quot;&gt;OAuth2 or local-first auth&lt;/span&gt;&lt;/div&gt;" style="text;html=1;align=center;verticalAlign=middle;resizable=0;points=[];autosize=1;strokeColor=none;fillColor=none;" vertex="1" parent="1">
          <mxGeometry x="185" y="150" width="220" height="40" as="geometry" />
        </mxCell>
        <mxCell id="2zX7negMlNs0xSwpkuFU-6" value="User&#39;s wallet&lt;div&gt;(RariMe or SSI Wallet)&lt;/div&gt;" style="swimlane;whiteSpace=wrap;html=1;startSize=30;" vertex="1" parent="1">
          <mxGeometry x="93.75" y="320" width="142.5" height="150" as="geometry" />
        </mxCell>
        <mxCell id="2zX7negMlNs0xSwpkuFU-7" style="edgeStyle=orthogonalEdgeStyle;rounded=0;orthogonalLoop=1;jettySize=auto;html=1;entryX=0;entryY=0.75;entryDx=0;entryDy=0;" edge="1" parent="1" source="2zX7negMlNs0xSwpkuFU-6" target="2zX7negMlNs0xSwpkuFU-10">
          <mxGeometry relative="1" as="geometry" />
        </mxCell>
        <mxCell id="2zX7negMlNs0xSwpkuFU-8" value="2) Associate zk proof to logged-in account,&amp;nbsp;&lt;div&gt;containing disclosure of citizenship&amp;nbsp;&lt;/div&gt;&lt;div&gt;&amp;amp; eventually other attributes as well as a&amp;nbsp;&lt;/div&gt;&lt;div&gt;unique &amp;amp; verifiable and&amp;nbsp;&lt;/div&gt;&lt;div&gt;&lt;span style=&quot;background-color: initial;&quot;&gt;eventually issuer-unlinkable identifier&lt;/span&gt;&lt;/div&gt;&lt;div&gt;for the scope of the whole Agora app&lt;/div&gt;" style="text;html=1;align=center;verticalAlign=middle;resizable=0;points=[];autosize=1;strokeColor=none;fillColor=none;" vertex="1" parent="1">
          <mxGeometry x="255" y="300" width="250" height="100" as="geometry" />
        </mxCell>
        <mxCell id="2zX7negMlNs0xSwpkuFU-9" value="" style="shape=cylinder3;whiteSpace=wrap;html=1;boundedLbl=1;backgroundOutline=1;size=15;" vertex="1" parent="1">
          <mxGeometry x="590" y="375" width="60" height="80" as="geometry" />
        </mxCell>
        <mxCell id="2zX7negMlNs0xSwpkuFU-10" value="Agora" style="shape=document;whiteSpace=wrap;html=1;boundedLbl=1;" vertex="1" parent="1">
          <mxGeometry x="540" y="335" width="120" height="80" as="geometry" />
        </mxCell>
        <mxCell id="2zX7negMlNs0xSwpkuFU-11" style="edgeStyle=orthogonalEdgeStyle;rounded=0;orthogonalLoop=1;jettySize=auto;html=1;entryX=0;entryY=0.5;entryDx=0;entryDy=0;startArrow=classic;startFill=1;endArrow=none;endFill=0;" edge="1" parent="1" source="2zX7negMlNs0xSwpkuFU-12" target="2zX7negMlNs0xSwpkuFU-14">
          <mxGeometry relative="1" as="geometry" />
        </mxCell>
        <mxCell id="2zX7negMlNs0xSwpkuFU-12" value="User" style="shape=umlActor;verticalLabelPosition=bottom;verticalAlign=top;html=1;outlineConnect=0;" vertex="1" parent="1">
          <mxGeometry x="150" y="540" width="30" height="60" as="geometry" />
        </mxCell>
        <mxCell id="2zX7negMlNs0xSwpkuFU-13" value="" style="shape=cylinder3;whiteSpace=wrap;html=1;boundedLbl=1;backgroundOutline=1;size=15;" vertex="1" parent="1">
          <mxGeometry x="590" y="570" width="60" height="80" as="geometry" />
        </mxCell>
        <mxCell id="2zX7negMlNs0xSwpkuFU-14" value="Agora" style="shape=document;whiteSpace=wrap;html=1;boundedLbl=1;" vertex="1" parent="1">
          <mxGeometry x="540" y="530" width="120" height="80" as="geometry" />
        </mxCell>
        <mxCell id="2zX7negMlNs0xSwpkuFU-15" value="3) Agora locally issues a&amp;nbsp;&lt;div&gt;&lt;span style=&quot;background-color: initial;&quot;&gt;BBS+ Community Credential&amp;nbsp;&lt;/span&gt;&lt;span style=&quot;background-color: initial;&quot;&gt;matching the zk proof,&lt;/span&gt;&lt;div&gt;&lt;span style=&quot;background-color: initial;&quot;&gt;and blind-issues a BBS+ Secret Credential to the user&lt;/span&gt;&lt;/div&gt;&lt;/div&gt;" style="text;html=1;align=center;verticalAlign=middle;resizable=0;points=[];autosize=1;strokeColor=none;fillColor=none;" vertex="1" parent="1">
          <mxGeometry x="205" y="510" width="310" height="60" as="geometry" />
        </mxCell>
        <mxCell id="2zX7negMlNs0xSwpkuFU-16" style="edgeStyle=orthogonalEdgeStyle;rounded=0;orthogonalLoop=1;jettySize=auto;html=1;entryX=0;entryY=0.5;entryDx=0;entryDy=0;startArrow=none;startFill=0;endArrow=classic;endFill=1;" edge="1" parent="1" source="2zX7negMlNs0xSwpkuFU-17" target="2zX7negMlNs0xSwpkuFU-19">
          <mxGeometry relative="1" as="geometry" />
        </mxCell>
        <mxCell id="2zX7negMlNs0xSwpkuFU-17" value="User" style="shape=umlActor;verticalLabelPosition=bottom;verticalAlign=top;html=1;outlineConnect=0;" vertex="1" parent="1">
          <mxGeometry x="150" y="740" width="30" height="60" as="geometry" />
        </mxCell>
        <mxCell id="2zX7negMlNs0xSwpkuFU-18" value="" style="shape=cylinder3;whiteSpace=wrap;html=1;boundedLbl=1;backgroundOutline=1;size=15;" vertex="1" parent="1">
          <mxGeometry x="490" y="770" width="60" height="80" as="geometry" />
        </mxCell>
        <mxCell id="2zX7negMlNs0xSwpkuFU-19" value="Agora" style="shape=document;whiteSpace=wrap;html=1;boundedLbl=1;" vertex="1" parent="1">
          <mxGeometry x="440" y="730" width="120" height="80" as="geometry" />
        </mxCell>
        <mxCell id="2zX7negMlNs0xSwpkuFU-20" value="4) The user may logout,&amp;nbsp;&lt;div&gt;and uses BBS+ credentials directly to post&amp;nbsp;&lt;/div&gt;" style="text;html=1;align=center;verticalAlign=middle;resizable=0;points=[];autosize=1;strokeColor=none;fillColor=none;" vertex="1" parent="1">
          <mxGeometry x="180" y="720" width="250" height="40" as="geometry" />
        </mxCell>
      </root>
    </mxGraphModel>
  </diagram>
</mxfile>
